<svg width="15" height="15" viewBox="0 0 15 15" fill="none" xmlns="http://www.w3.org/2000/svg">
<path d="M12.63 0L14.9999 2.36991L13.1933 4.17737L10.8234 1.80745L12.63 0ZM3.94983 11.0501H6.31974L12.0763 5.2936L9.70635 2.92368L3.94983 8.6802V11.0501Z" fill="black"/>
<path d="M12.6395 13.4201H4.07467C4.05413 13.4201 4.0328 13.428 4.01226 13.428C3.98619 13.428 3.96013 13.4208 3.93327 13.4201H1.57994V2.36046H6.98887L8.56882 0.780518H1.57994C0.708604 0.780518 0 1.48833 0 2.36046V13.4201C0 14.2922 0.708604 15 1.57994 15H12.6395C13.0586 15 13.4604 14.8335 13.7567 14.5372C14.053 14.2409 14.2195 13.8391 14.2195 13.4201V6.57259L12.6395 8.15253V13.4201Z" fill="black"/>
</svg>
