<svg xmlns="http://www.w3.org/2000/svg" xml:space="preserve" width="513.5" height="377.29999" viewBox="0 0 513.50002 377.29999"><defs><clipPath id="a" clipPathUnits="userSpaceOnUse"><path d="M0 841.89h595.28V0H0Z"/></clipPath><clipPath id="b" clipPathUnits="userSpaceOnUse"><path d="M237.957 417.108c0-31.849 25.818-57.666 57.665-57.666 31.847 0 57.665 25.817 57.665 57.666 0 31.846-25.818 57.664-57.665 57.664-31.847 0-57.665-25.818-57.665-57.664"/></clipPath><clipPath id="d" clipPathUnits="userSpaceOnUse"><path d="M235.208 417.108c0-33.368 27.047-60.416 60.414-60.416 33.368 0 60.416 27.048 60.416 60.416 0 33.365-27.048 60.414-60.416 60.414-33.367 0-60.414-27.049-60.414-60.414m56.542 57.411c1.225.077 2.628.163 3.872.163.496 0 .99-.005 1.482-.017a4.07 4.07 0 0 0-.202-.392c-.352-.574-2.53-3.521-2.53-3.521l1.385-1.232s1.301 1.809 1.927 2.652c.418.563.484 1.054.484 1.054s.527-.194 1.208-.114c.66.078 3.271.313 3.271.313l-.287.977c28.484-3.511 50.927-27.95 50.927-57.383 0-27.239-18.886-50.063-44.277-56.1-.08-.021-.237-.069-.234-.043.057.578.003 1.121.003 1.121l-1.721.133-.053-1.651a57.139 57.139 0 0 0-3.092-.529c-.003.031-.068.027-.132.023-.062-.004-.126-.008-.126.023-.02.689-.091 3.53-.091 3.53l-1.621.168s.017-2.055.03-3.128c.007-.515.116-.601.116-.601s-.156.076-.52-.255l-.067-.061a58.097 58.097 0 0 0-5.103-.285c.459.394.695.45 1.127.751.393.276.941.402.941.402s-.116.501-.128.9c-.021.688-.003 3.872-.003 3.872l-1.62.168s.018-2.057.031-3.128c.006-.515.131-.935.131-.935s-.506-.076-.869-.405c-.447-.406-1.661-1.302-2.028-1.611-31.087.869-56.024 26.341-56.024 57.641 0 30.366 23.475 55.247 53.267 57.494l.016-.245z"/></clipPath><clipPath id="f" clipPathUnits="userSpaceOnUse"><path d="M274.947 372.259c-.047-.513.035-.942.035-.942s-.513-.024-.908-.315c-.557-.409-2.572-1.781-2.572-1.781l.971-1.311s1.798 1.389 3.021 2.067c.419.233.978.304.978.304s-.065.509-.035.907c.05.687.395 3.852.395 3.852l-1.594.333s-.194-2.047-.291-3.114"/></clipPath><clipPath id="h" clipPathUnits="userSpaceOnUse"><path d="M269.769 375.862c-.071-.509-.01-.942-.01-.942s-.512 0-.922-.272c-.575-.382-2.652-1.656-2.652-1.656l.908-1.356s1.861 1.302 3.115 1.923c.428.213.99.256.99.256s-.041.512.008.909c.083.683.576 3.828.576 3.828l-1.577.409s-.289-2.037-.436-3.099"/></clipPath><clipPath id="j" clipPathUnits="userSpaceOnUse"><path d="M264.803 380.042c-.099-.505-.063-.941-.063-.941s-.511.028-.935-.219c-.595-.35-2.741-1.504-2.741-1.504l.829-1.406s1.933 1.195 3.218 1.744c.442.189 1.005.2 1.005.2s-.012.513.058.907c.122.678.792 3.79.792 3.79l-1.551.497s-.405-2.017-.612-3.068"/></clipPath><clipPath id="l" clipPathUnits="userSpaceOnUse"><path d="M280.357 369.148c-.032-.514.061-.942.061-.942s-.512-.038-.899-.339c-.545-.425-2.522-1.851-2.522-1.851l1.008-1.284s1.759 1.437 2.961 2.149c.413.246.97.331.97.331s-.079.507-.061.906c.032.688.289 3.862.289 3.862l-1.603.29s-.136-2.053-.204-3.122"/></clipPath><clipPath id="n" clipPathUnits="userSpaceOnUse"><path d="M285.853 366.576a3.792 3.792 0 0 1 .113-.936s-.509-.065-.878-.389c-.521-.454-2.414-1.989-2.414-1.989l1.077-1.225s1.676 1.533 2.838 2.313c.398.266.948.383.948.383s-.107.502-.11.902c-.008.688.071 3.871.071 3.871l-1.617.199s-.021-2.057-.028-3.129"/></clipPath><clipPath id="p" clipPathUnits="userSpaceOnUse"><path d="M291.267 364.204c.005-.515.13-.934.13-.934s-.506-.077-.87-.406c-.511-.465-2.375-2.034-2.375-2.034l1.1-1.205s1.646 1.566 2.793 2.366c.393.274.941.401.941.401s-.116.501-.128.899c-.021.69-.003 3.873-.003 3.873l-1.619.168s.017-2.056.031-3.128"/></clipPath><clipPath id="r" clipPathUnits="userSpaceOnUse"><path d="M314.736 444.715c-.421-.545-2.366-2.554-2.366-2.554l.901-1.539s1.583 1.191 2.254 2.029c.322.401.638.787.638.787s.452-.301 1.164-.301c.692 0 3.418-.074 3.418-.074l-.01 1.942s-2.501-.022-3.896.085c-.477.038-1.69.489-1.69.489s-.169-.549-.413-.864"/></clipPath><clipPath id="t" clipPathUnits="userSpaceOnUse"><path d="M311.262 450.246c-.419-.546-2.74-2.893-2.74-2.893l1.314-1.426s1.523 1.693 2.253 2.479c.488.526.601 1.126.601 1.126s.526-.263 1.239-.263c.691 0 3.417-.075 3.417-.075l-.188 1.765s-2.216.075-3.718.112c-.788.021-1.512.311-1.512.311s-.421-.821-.666-1.136"/></clipPath><clipPath id="v" clipPathUnits="userSpaceOnUse"><path d="M307.905 456.372c-.422-.545-2.742-2.892-2.742-2.892l1.315-1.426s1.523 1.692 2.253 2.478c.487.526.6 1.126.6 1.126s.527-.262 1.24-.262c.69 0 3.416-.076 3.416-.076l-.186 1.765s-2.216.075-3.718.113c-.789.02-1.513.311-1.513.311s-.422-.823-.665-1.137"/></clipPath><clipPath id="x" clipPathUnits="userSpaceOnUse"><path d="M304.392 462.572c-.422-.544-2.741-2.892-2.741-2.892l1.314-1.426s1.523 1.692 2.253 2.478c.488.526.601 1.127.601 1.127s.526-.263 1.238-.263c.692 0 3.419-.075 3.419-.075l-.188 1.765s-2.217.075-3.718.112c-.789.02-1.512.311-1.512.311s-.422-.821-.666-1.137"/></clipPath><clipPath id="z" clipPathUnits="userSpaceOnUse"><path d="M300.559 468.261c-.394-.564-2.508-2.863-2.508-2.863l1.382-1.361s1.349 1.606 2.041 2.426c.461.549.544 1.154.544 1.154s.539-.237 1.251-.203c.691.033 3.418.09 3.418.09l-.272 1.754s-2.217-.032-3.719-.066c-.789-.019-1.535.228-1.535.228s-.373-.832-.602-1.159"/></clipPath><clipPath id="B" clipPathUnits="userSpaceOnUse"><path d="M0 841.89h595.28V0H0Z"/></clipPath><linearGradient id="e" x1="0" x2="1" y1="0" y2="0" gradientTransform="scale(117.58863 -117.58863) rotate(47.936 5.506 .47)" gradientUnits="userSpaceOnUse" spreadMethod="pad"><stop offset="0" style="stop-opacity:1;stop-color:#e6e6e7"/><stop offset="1" style="stop-opacity:1;stop-color:#99999a"/></linearGradient><linearGradient id="g" x1="0" x2="1" y1="0" y2="0" gradientTransform="matrix(78.77533 -87.29166 -87.29166 -78.77531 220.605 431.366)" gradientUnits="userSpaceOnUse" spreadMethod="pad"><stop offset="0" style="stop-opacity:1;stop-color:#e6e6e7"/><stop offset="1" style="stop-opacity:1;stop-color:#99999a"/></linearGradient><linearGradient id="i" x1="0" x2="1" y1="0" y2="0" gradientTransform="matrix(78.78876 -87.30653 -87.30653 -78.78874 219.488 430.443)" gradientUnits="userSpaceOnUse" spreadMethod="pad"><stop offset="0" style="stop-opacity:1;stop-color:#e6e6e7"/><stop offset="1" style="stop-opacity:1;stop-color:#99999a"/></linearGradient><linearGradient id="k" x1="0" x2="1" y1="0" y2="0" gradientTransform="matrix(78.77689 -87.29338 -87.29338 -78.77687 218.822 429.83)" gradientUnits="userSpaceOnUse" spreadMethod="pad"><stop offset="0" style="stop-opacity:1;stop-color:#e6e6e7"/><stop offset="1" style="stop-opacity:1;stop-color:#99999a"/></linearGradient><linearGradient id="m" x1="0" x2="1" y1="0" y2="0" gradientTransform="scale(117.60526 -117.60526) rotate(47.936 5.082 .284)" gradientUnits="userSpaceOnUse" spreadMethod="pad"><stop offset="0" style="stop-opacity:1;stop-color:#e6e6e7"/><stop offset="1" style="stop-opacity:1;stop-color:#99999a"/></linearGradient><linearGradient id="o" x1="0" x2="1" y1="0" y2="0" gradientTransform="scale(117.5741 -117.5741) rotate(47.936 5.106 .294)" gradientUnits="userSpaceOnUse" spreadMethod="pad"><stop offset="0" style="stop-opacity:1;stop-color:#e6e6e7"/><stop offset="1" style="stop-opacity:1;stop-color:#99999a"/></linearGradient><linearGradient id="q" x1="0" x2="1" y1="0" y2="0" gradientTransform="scale(117.59997 -117.59997) rotate(47.936 5.128 .305)" gradientUnits="userSpaceOnUse" spreadMethod="pad"><stop offset="0" style="stop-opacity:1;stop-color:#e6e6e7"/><stop offset="1" style="stop-opacity:1;stop-color:#99999a"/></linearGradient><linearGradient id="s" x1="0" x2="1" y1="0" y2="0" gradientTransform="scale(117.60254 -117.60254) rotate(47.936 5.821 .613)" gradientUnits="userSpaceOnUse" spreadMethod="pad"><stop offset="0" style="stop-opacity:1;stop-color:#e6e6e7"/><stop offset="1" style="stop-opacity:1;stop-color:#99999a"/></linearGradient><linearGradient id="u" x1="0" x2="1" y1="0" y2="0" gradientTransform="scale(117.60374 -117.60374) rotate(47.936 5.832 .618)" gradientUnits="userSpaceOnUse" spreadMethod="pad"><stop offset="0" style="stop-opacity:1;stop-color:#e6e6e7"/><stop offset="1" style="stop-opacity:1;stop-color:#99999a"/></linearGradient><linearGradient id="w" x1="0" x2="1" y1="0" y2="0" gradientTransform="scale(117.58189 -117.58189) rotate(47.936 5.848 .625)" gradientUnits="userSpaceOnUse" spreadMethod="pad"><stop offset="0" style="stop-opacity:1;stop-color:#e6e6e7"/><stop offset="1" style="stop-opacity:1;stop-color:#99999a"/></linearGradient><linearGradient id="y" x1="0" x2="1" y1="0" y2="0" gradientTransform="matrix(78.78784 -87.30553 -87.30553 -78.78783 282.64 487.336)" gradientUnits="userSpaceOnUse" spreadMethod="pad"><stop offset="0" style="stop-opacity:1;stop-color:#e6e6e7"/><stop offset="1" style="stop-opacity:1;stop-color:#99999a"/></linearGradient><linearGradient id="A" x1="0" x2="1" y1="0" y2="0" gradientTransform="matrix(78.7795 -87.29628 -87.29628 -78.77948 283.437 488.156)" gradientUnits="userSpaceOnUse" spreadMethod="pad"><stop offset="0" style="stop-opacity:1;stop-color:#e6e6e7"/><stop offset="1" style="stop-opacity:1;stop-color:#99999a"/></linearGradient><radialGradient id="c" cx="0" cy="0" r="1" fx="0" fy="0" gradientTransform="matrix(80.04472 0 0 -80.04472 277.79 431.789)" gradientUnits="userSpaceOnUse" spreadMethod="pad"><stop offset="0" style="stop-opacity:1;stop-color:#fff"/><stop offset="0.55253867" style="stop-opacity:1;stop-color:#fff"/><stop offset="1" style="stop-opacity:1;stop-color:#cdcccd"/></radialGradient></defs><g clip-path="url(#a)" transform="matrix(2.18636 0 0 -2.18636 -381.876 1099.866)"><path d="M0 0c0-47.624-38.607-86.231-86.232-86.231-47.624 0-86.231 38.607-86.231 86.231 0 47.624 38.607 86.231 86.231 86.231C-38.607 86.231 0 47.624 0 0" style="fill:#fff;fill-opacity:1;fill-rule:nonzero;stroke:none" transform="translate(381.323 416.826)"/><path d="M0 0c-33.366 0-60.415 27.049-60.415 60.416 0 33.366 27.049 60.415 60.415 60.415 33.367 0 60.416-27.049 60.416-60.415C60.416 27.049 33.367 0 0 0m0 143.099c-45.665 0-82.683-37.019-82.683-82.683 0-45.665 37.018-82.684 82.683-82.684 45.665 0 82.684 37.019 82.684 82.684 0 45.664-37.019 82.683-82.684 82.683" style="fill:#042856;fill-opacity:1;fill-rule:nonzero;stroke:none" transform="translate(295.622 356.691)"/></g><g clip-path="url(#b)" transform="matrix(2.18636 0 0 -2.18636 -381.876 1099.866)"><path d="M237.957 417.108c0-31.849 25.818-57.666 57.665-57.666 31.847 0 57.665 25.817 57.665 57.666 0 31.846-25.818 57.664-57.665 57.664-31.847 0-57.665-25.818-57.665-57.664" style="fill:url(#c);stroke:none"/></g><g clip-path="url(#d)" transform="matrix(2.18636 0 0 -2.18636 -381.876 1099.866)"><path d="M235.208 417.108c0-33.368 27.047-60.416 60.414-60.416 33.368 0 60.416 27.048 60.416 60.416 0 33.365-27.048 60.414-60.416 60.414-33.367 0-60.414-27.049-60.414-60.414m56.542 57.411c1.225.077 2.628.163 3.872.163.496 0 .99-.005 1.482-.017a4.07 4.07 0 0 0-.202-.392c-.352-.574-2.53-3.521-2.53-3.521l1.385-1.232s1.301 1.809 1.927 2.652c.418.563.484 1.054.484 1.054s.527-.194 1.208-.114c.66.078 3.271.313 3.271.313l-.287.977c28.484-3.511 50.927-27.95 50.927-57.383 0-27.239-18.886-50.063-44.277-56.1-.08-.021-.237-.069-.234-.043.057.578.003 1.121.003 1.121l-1.721.133-.053-1.651a57.139 57.139 0 0 0-3.092-.529c-.003.031-.068.027-.132.023-.062-.004-.126-.008-.126.023-.02.689-.091 3.53-.091 3.53l-1.621.168s.017-2.055.03-3.128c.007-.515.116-.601.116-.601s-.156.076-.52-.255l-.067-.061a58.097 58.097 0 0 0-5.103-.285c.459.394.695.45 1.127.751.393.276.941.402.941.402s-.116.501-.128.9c-.021.688-.003 3.872-.003 3.872l-1.62.168s.018-2.057.031-3.128c.006-.515.131-.935.131-.935s-.506-.076-.869-.405c-.447-.406-1.661-1.302-2.028-1.611-31.087.869-56.024 26.341-56.024 57.641 0 30.366 23.475 55.247 53.267 57.494l.016-.245z" style="fill:url(#e);stroke:none"/></g><g clip-path="url(#f)" transform="matrix(2.18636 0 0 -2.18636 -381.876 1099.866)"><path d="M274.947 372.259c-.047-.513.035-.942.035-.942s-.513-.024-.908-.315c-.557-.409-2.572-1.781-2.572-1.781l.971-1.311s1.798 1.389 3.021 2.067c.419.233.978.304.978.304s-.065.509-.035.907c.05.687.395 3.852.395 3.852l-1.594.333s-.194-2.047-.291-3.114" style="fill:url(#g);stroke:none"/></g><g clip-path="url(#h)" transform="matrix(2.18636 0 0 -2.18636 -381.876 1099.866)"><path d="M269.769 375.862c-.071-.509-.01-.942-.01-.942s-.512 0-.922-.272c-.575-.382-2.652-1.656-2.652-1.656l.908-1.356s1.861 1.302 3.115 1.923c.428.213.99.256.99.256s-.041.512.008.909c.083.683.576 3.828.576 3.828l-1.577.409s-.289-2.037-.436-3.099" style="fill:url(#i);stroke:none"/></g><g clip-path="url(#j)" transform="matrix(2.18636 0 0 -2.18636 -381.876 1099.866)"><path d="M264.803 380.042c-.099-.505-.063-.941-.063-.941s-.511.028-.935-.219c-.595-.35-2.741-1.504-2.741-1.504l.829-1.406s1.933 1.195 3.218 1.744c.442.189 1.005.2 1.005.2s-.012.513.058.907c.122.678.792 3.79.792 3.79l-1.551.497s-.405-2.017-.612-3.068" style="fill:url(#k);stroke:none"/></g><g clip-path="url(#l)" transform="matrix(2.18636 0 0 -2.18636 -381.876 1099.866)"><path d="M280.357 369.148c-.032-.514.061-.942.061-.942s-.512-.038-.899-.339c-.545-.425-2.522-1.851-2.522-1.851l1.008-1.284s1.759 1.437 2.961 2.149c.413.246.97.331.97.331s-.079.507-.061.906c.032.688.289 3.862.289 3.862l-1.603.29s-.136-2.053-.204-3.122" style="fill:url(#m);stroke:none"/></g><g clip-path="url(#n)" transform="matrix(2.18636 0 0 -2.18636 -381.876 1099.866)"><path d="M285.853 366.576a3.792 3.792 0 0 1 .113-.936s-.509-.065-.878-.389c-.521-.454-2.414-1.989-2.414-1.989l1.077-1.225s1.676 1.533 2.838 2.313c.398.266.948.383.948.383s-.107.502-.11.902c-.008.688.071 3.871.071 3.871l-1.617.199s-.021-2.057-.028-3.129" style="fill:url(#o);stroke:none"/></g><g clip-path="url(#p)" transform="matrix(2.18636 0 0 -2.18636 -381.876 1099.866)"><path d="M291.267 364.204c.005-.515.13-.934.13-.934s-.506-.077-.87-.406c-.511-.465-2.375-2.034-2.375-2.034l1.1-1.205s1.646 1.566 2.793 2.366c.393.274.941.401.941.401s-.116.501-.128.899c-.021.69-.003 3.873-.003 3.873l-1.619.168s.017-2.056.031-3.128" style="fill:url(#q);stroke:none"/></g><g clip-path="url(#r)" transform="matrix(2.18636 0 0 -2.18636 -381.876 1099.866)"><path d="M314.736 444.715c-.421-.545-2.366-2.554-2.366-2.554l.901-1.539s1.583 1.191 2.254 2.029c.322.401.638.787.638.787s.452-.301 1.164-.301c.692 0 3.418-.074 3.418-.074l-.01 1.942s-2.501-.022-3.896.085c-.477.038-1.69.489-1.69.489s-.169-.549-.413-.864" style="fill:url(#s);stroke:none"/></g><g clip-path="url(#t)" transform="matrix(2.18636 0 0 -2.18636 -381.876 1099.866)"><path d="M311.262 450.246c-.419-.546-2.74-2.893-2.74-2.893l1.314-1.426s1.523 1.693 2.253 2.479c.488.526.601 1.126.601 1.126s.526-.263 1.239-.263c.691 0 3.417-.075 3.417-.075l-.188 1.765s-2.216.075-3.718.112c-.788.021-1.512.311-1.512.311s-.421-.821-.666-1.136" style="fill:url(#u);stroke:none"/></g><g clip-path="url(#v)" transform="matrix(2.18636 0 0 -2.18636 -381.876 1099.866)"><path d="M307.905 456.372c-.422-.545-2.742-2.892-2.742-2.892l1.315-1.426s1.523 1.692 2.253 2.478c.487.526.6 1.126.6 1.126s.527-.262 1.24-.262c.69 0 3.416-.076 3.416-.076l-.186 1.765s-2.216.075-3.718.113c-.789.02-1.513.311-1.513.311s-.422-.823-.665-1.137" style="fill:url(#w);stroke:none"/></g><g clip-path="url(#x)" transform="matrix(2.18636 0 0 -2.18636 -381.876 1099.866)"><path d="M304.392 462.572c-.422-.544-2.741-2.892-2.741-2.892l1.314-1.426s1.523 1.692 2.253 2.478c.488.526.601 1.127.601 1.127s.526-.263 1.238-.263c.692 0 3.419-.075 3.419-.075l-.188 1.765s-2.217.075-3.718.112c-.789.02-1.512.311-1.512.311s-.422-.821-.666-1.137" style="fill:url(#y);stroke:none"/></g><g clip-path="url(#z)" transform="matrix(2.18636 0 0 -2.18636 -381.876 1099.866)"><path d="M300.559 468.261c-.394-.564-2.508-2.863-2.508-2.863l1.382-1.361s1.349 1.606 2.041 2.426c.461.549.544 1.154.544 1.154s.539-.237 1.251-.203c.691.033 3.418.09 3.418.09l-.272 1.754s-2.217-.032-3.719-.066c-.789-.019-1.535.228-1.535.228s-.373-.832-.602-1.159" style="fill:url(#A);stroke:none"/></g><g clip-path="url(#B)" transform="matrix(2.18636 0 0 -2.18636 -381.876 1099.866)"><path d="M0 0h-4.028v-1.28H0v-9.693h3.152v9.693H7.18V0H3.152Z" style="fill:#fff;fill-opacity:1;fill-rule:nonzero;stroke:none" transform="translate(294.046 494.053)"/><path d="m0 0-3.972.673-.214-1.262 3.971-.674-1.619-9.555 3.107-.527 1.62 9.556 3.972-.673.214 1.262-3.972.673z" style="fill:#fff;fill-opacity:1;fill-rule:nonzero;stroke:none" transform="translate(308.15 493.097)"/><path d="m0 0 5.32-2.11.443 1.116L-.22 1.38l-1.673.663a1.287 1.287 0 0 1-1.636-.642l-.004.002-3.081-7.762.004-.001a1.29 1.29 0 0 1 .752-1.591l1.671-.663 5.983-2.374.442 1.116-5.308 2.106a.73.73 0 0 0-.405.945l1.103 2.778 5.981-2.374.561 1.27-5.983 2.374.881 2.36A.729.729 0 0 0 0 0" style="fill:#fff;fill-opacity:1;fill-rule:nonzero;stroke:none" transform="translate(321.964 488.116)"/><path d="M0 0a.8.8 0 0 0-1.004.447l-3.077 8.178-2.95-1.109 2.929-7.787.488-1.298.004.002a1.288 1.288 0 0 1 1.625-.672l1.743.656L5.212.468 4.72 1.775z" style="fill:#fff;fill-opacity:1;fill-rule:nonzero;stroke:none" transform="translate(270.752 479.745)"/><path d="M0 0c-1.698-.279-3.419 1.584-3.845 4.163-.425 2.579.607 4.897 2.305 5.177 1.699.279 3.42-1.584 3.846-4.163C2.73 2.598 1.698.28 0 0m-1.787 10.594c-3.417-.563-5.748-3.675-5.208-6.95.54-3.276 3.747-5.475 7.163-4.912 3.416.564 5.748 3.675 5.207 6.951-.539 3.275-3.746 5.474-7.162 4.911" style="fill:#fff;fill-opacity:1;fill-rule:nonzero;stroke:none" transform="translate(283.211 482.477)"/><path d="M0 0c-.35.546-.964.786-1.641.352l-.286-.184c-.677-.434-.774-1.189-.417-1.746l.158-.221c.382-.595.938-.661 1.589-.243l.283.183c.65.418.784 1.128.402 1.722zm-2.515 3.799c-.309.482-.846.691-1.601.207l-.329-.207c-.756-.485-.612-1.079-.293-1.575l.181-.271c.35-.545.881-.555 1.48-.171l.428.281c.598.384.647.944.297 1.489zM.736-3.582.58-3.683c-2.33-1.494-4.014-1.255-5.062.382l-.127.198c-.518.805-.686 1.707-.342 2.574-.874.016-1.475.372-1.999 1.19l-.144.224c-1.041 1.624-.6 3.264 1.742 4.766l.157.101c2.33 1.494 3.916 1.2 4.957-.423l.142-.223c.525-.818.7-1.496.352-2.296.932-.05 1.577-.596 2.094-1.402l.127-.198C3.525-.427 3.065-2.089.736-3.582" style="fill:#fff;fill-opacity:1;fill-rule:nonzero;stroke:none" transform="translate(337.437 357.05)"/><path d="m0 0-.465-1.148c-.61-1.332-1.191-2.527-.647-3.166l.477-.549 3.276 3.029c.129.11.321.101.425-.023L4.15-2.874a.303.303 0 0 0-.045-.425l-4.96-4.424c-.129-.11-.323-.1-.427.024L-2.333-6.61c-1.052 1.232-1.61 2.306-1.284 3.591L-2.53-.721c.696 1.344.085 1.764-.183 2.078-.307.358-.599.353-1.527-.44C-4.981.284-5.553-.45-6.233-1.128c-.012-.011-.012-.011-.025-.02a.284.284 0 0 0-.402.043l-.88.91c-.106.123-.062.273.042.403.592.745 1.572 1.643 2.463 2.565 1.711 1.773 3.154 1.191 4.314-.036C.122 1.845.428 1.1 0 0" style="fill:#fff;fill-opacity:1;fill-rule:nonzero;stroke:none" transform="translate(345.235 365.76)"/><path d="M0 0c-.713 1.356-1.338 1.166-2.09.771-.576-.302-1.096-.86-.514-1.968l.184-.244c.479-.913 1.318-.465 2.016-.098.328.173.656.498.867.659zm2.736-6.94C1.463-7.609.162-8.132-.584-8.308c-.281-.064-.383-.002-.465.155l-.532 1.001c-.097.182-.048.324.102.402l.069.037c.691.246 1.718.724 2.546 1.105 1.381.635 1.454 1.551.464 3.128l-.041.078C1.326-2.591.566-3.286.17-3.494c-2.244-1.18-3.752-1.246-4.863.647l-.391.685c-1.068 2.033-.08 3.539 2.371 4.827 2.367 1.244 3.844.795 5.082-1.564l1.663-3.08c1.369-2.607.84-3.839-1.296-4.961" style="fill:#fff;fill-opacity:1;fill-rule:nonzero;stroke:none" transform="translate(326.136 355.092)"/><path d="m0 0-1.87-.733a.302.302 0 0 0-.391.171l-2.872 7.931-1.026-.624a.52.52 0 0 0-.147-.096c-.093-.034-.152.002-.189.104l-.58 1.435c-.042.115-.021.18.082.275l3.106 1.731c.148.054.292-.008.343-.149L.175.377A.29.29 0 0 0 0 0" style="fill:#fff;fill-opacity:1;fill-rule:nonzero;stroke:none" transform="translate(321.113 344.95)"/><path d="m0 0 2.002.103c.221.012.389-.017.504-.089.115-.072.224-.183.328-.333l4.413-6.563L6.858.436l2.905.16.534-9.093c.014-.226-.035-.389-.146-.489-.11-.1-.303-.159-.576-.173l-1.733-.2c-.221-.013-.389.016-.504.088a1.156 1.156 0 0 0-.328.333l-4.863 6.88.413-7.477-2.859-.137-.424 9.01c-.011.225.037.389.148.489.11.101.302.157.575.173" style="fill:#fff;fill-opacity:1;fill-rule:nonzero;stroke:none" transform="translate(295.646 350.27)"/><path d="m0 0-1.658-2.339 1.603-1.142c.527-.434 1.162-.796 1.556-.799.407-.004.94.391 1.17.816.479.885-.141 1.722-.781 2.156C1.25-.873 0 0 0 0m-2.303-3.279-1.753-2.379c-.081-.115-.109-.214-.084-.298.025-.084.116-.181.271-.289l1.511-1.143c.649-.452 1.421-.815 1.971-.718.55.097.713.277 1.124.866.295.423.35 1.124.01 1.61-.161.229-.575.629-1.282 1.114-.708.487-1.768 1.237-1.768 1.237m1.419 5.306 4.44-3.114c.916-.639 1.34-1.167 1.639-1.842.285-.642.193-1.306-.147-2.009-.307-.633-1.008-.989-1.42-1.125-.41-.137-1.067.113-1.454.315.602-.315.894-.954.995-1.548.1-.593-.052-1.385-.364-1.832-.671-.961-1.202-1.152-2.123-1.098-.991.061-1.511.388-2.7 1.221l-4.085 2.85c-.493.407-.574.492-.659.795-.085.301-.015.613.208.932l4.456 6.373a.677.677 0 0 0 .526.312c.216.015.446-.062.688-.23" style="fill:#fff;fill-opacity:1;fill-rule:nonzero;stroke:none" transform="translate(254.971 362.944)"/><path d="M0 0c.158-.302.642-.763 1.12-.983.479-.221 1.104-.349 1.441-.297.337.051 1.11.465 1.349.983l2.973 6.401 2.538-1.12L6.792-.961c-.481-1.042-1.955-1.816-2.927-1.875-.973-.058-1.843.075-3.316.755-1.474.68-1.929 1.257-2.516 2.035-.587.778-.983 2.219-.388 3.453L.206 9.123l2.607-1.212L.137 2.012C-.206 1.325-.274.525 0 0" style="fill:#fff;fill-opacity:1;fill-rule:nonzero;stroke:none" transform="translate(262.532 350.02)"/><path d="M0 0s-.08.792-.297 1.121c-.218.328-.807.834-1.356.993-.658.193-1.251.378-2.052.219-.4-.081-.902-.543-.983-1.007-.094-.678 1.51-1.463 2.768-1.92C-.4-1.146.675-2.183 1.212-2.767c.537-.584.467-1.663.343-2.332-.107-.561-.501-.961-.899-1.287-.398-.325-.811-.512-1.388-.588-.577-.076-1.065-.165-1.686-.1s-1.314.111-1.95.305c-1.02.306-1.845.695-2.515 1.189-.67.495-1.33 1.169-1.588 1.752-.379.855-.058 1.815-.058 1.815l2.492-.73s-.252-1.075.412-1.853c.462-.542 1.072-.825 1.6-1.007.87-.296 1.873-.246 2.241-.114.368.133.595.377.68.735.062.273-.001.575-.192.905-.19.33-1.445 1.248-2.065 1.425-1.607.459-2.806 1.288-3.408 2.035-.602.747-.709 1.774-.503 2.584.213.84 1.137 1.52 2.172 1.762 1.036.239 2.357.013 3.912-.458A7.367 7.367 0 0 0 1.861 1.45c.906-.901.746-2.204.746-2.204Z" style="fill:#fff;fill-opacity:1;fill-rule:nonzero;stroke:none" transform="translate(279.888 349.813)"/><path d="m0 0-2.287-3.499 4.002-.365L.435-.022zm.412 2.744 1.299-.064c.221-.025.374-.077.46-.158a.667.667 0 0 0 .184-.349l3.43-9.239c.11-.358-.056-.512-.496-.463l-2.019.166c-.22.024-.375.082-.466.175a.876.876 0 0 0-.204.381l-.474 1.661-5.099.458-.8-1.281a1.246 1.246 0 0 0-.152-.224.579.579 0 0 0-.238-.139.96.96 0 0 0-.417-.03l-.908.005c-.43.047-.559.222-.387.526l5.533 8.234a.556.556 0 0 0 .24.297c.102.056.272.071.514.044" style="fill:#fff;fill-opacity:1;fill-rule:nonzero;stroke:none" transform="translate(287.96 348.075)"/><path d="M0 0c-1.223 3.377-4.706 6.377-8.875 7.643-1.987.603-4.869.949-7.908.949-4.072 0-7.969-.623-10.969-1.756a28.713 28.713 0 0 1-1.143-.463 40.617 40.617 0 0 1-2.525-.752l-.815 2.493 1.387 4.553.224.665-2.301-.007-1.261.079-1.211 2.959 1.102 4.069.729 2.686h-9.85l-.64-.85c-.069-.092-7.214-9.439-16.798-12.015l-1.183-.317-.32-1.185-1.14-4.228c-2.681 2.716-6.646 4.201-11.267 4.201-.388 0-.788-.011-1.185-.033a29.114 29.114 0 0 1-4.348-.552l.111.425h-18.953l-.424-.019-2.753.019c-.074 0-7.371.051-9.248.051-2.124 0-3.664-.612-4.665-1.217-1.296.579-3.437 1.232-6.486 1.232H-122.831c-4.901-.027-11.726-1.066-16.534-5.825l-4.911-1.567c.456 1.694.883 3.275 1.253 4.641l.727 2.684h-1.364l.03.025c2.251 1.889 3.784 4.389 4.317 7.04.57 2.828-.045 5.491-1.731 7.501-1.63 1.944-4.057 3.015-6.833 3.015-2.789 0-5.607-1.077-7.936-3.031a13.464 13.464 0 0 1-1.687-1.69l-.068.096-3.756-5.549a10.342 10.342 0 0 1-1.683 4.232c-2.032 2.989-5.557 5.08-10.477 6.213-3.155.728-6.477 1.096-9.874 1.096-9.017 0-17.792-2.558-24.708-7.203-5.426-3.645-10.044-8.148-13.353-13.022-3.617-5.328-5.613-10.894-5.931-16.544-.327-5.822.726-10.803 3.131-14.805 2.412-4.013 6.113-6.949 11.001-8.726 5.515-2.006 12.657-2.305 16.423-2.305.656 0 1.305.008 1.946.025l.94-3.683a547.107 547.107 0 0 1-6.143-.752c-14.552-1.864-23.433-3.592-23.522-3.609l-10.698-2.096 10.701-2.083c11.47-2.234 19.749-7.24 24.674-11.047 5.361-4.142 8.034-7.809 8.061-7.846l.934-1.295 1.507.532c.078.027 7.944 2.808 20.095 5.896 11.196 2.847 28.425 6.545 46.925 7.999 13.307 1.047 30.857 1.293 46.271 1.396 17.311.115 38.219.873 45.659 1.656 7.72.813 13.412 3.606 19.027 9.34 5.899 6.023 6.027 12.938 6.03 13.23l.04 4.574c1.194 2.909 1.457 5.86.527 8.263-.967 2.497-3.011 4.519-6.101 6.043H.236l.188 1.922C.494-5.912.804-2.223 0 0" style="fill:#fff;fill-opacity:1;fill-rule:nonzero;stroke:none" transform="translate(408.935 433.501)"/><path d="M0 0c2.186 0 4.56.849 6.567 2.532 3.891 3.265 4.932 8.432 2.323 11.541-1.263 1.506-3.149 2.253-5.202 2.253-2.186 0-4.56-.847-6.567-2.531-3.892-3.266-4.931-8.432-2.323-11.542C-3.939.747-2.053 0 0 0" style="fill:#dc0827;fill-opacity:1;fill-rule:nonzero;stroke:none" transform="translate(257.36 441.735)"/><path d="M0 0c4.271-1.554 10.181-2.177 15.695-2.177 5.872 0 11.297.707 13.826 1.753 0 0 2.125-2.606 5.931-2.606.322 0 .656.018 1.002.059 0 0 4.669 19.618 7.31 23.674 2.64 4.056 4.904 6.65 4.904 6.65s-1.189.028-3.034.028c-4.348 0-12.34-.162-17.009-1.255-6.649-1.557-11.271-3.537-13.628-5.188-2.358-1.65-8.206-6.507-8.206-6.507S17.02 16.54 21.08 16.742c.385.019.771.028 1.151.028 2.434 0 4.623-.359 4.791-.642.194-.326-.607-8.378-6.885-9.054a26.642 26.642 0 0 0-2.823-.161c-5.091 0-8.804 1.762-10.853 6.009-2.594 5.376-1.321 14.431 2.83 20.372 4.156 5.952 8.205 9.856 14.005 12.073 2.661 1.017 4.785 1.497 6.41 1.497 1.919 0 3.143-.671 3.73-1.922 1.085-2.31-.425-5.564-1.651-6.696-1.226-1.132-4.952-4.763-4.952-4.763s5.244.41 10.706 1.226c5.989.896 11.176 4.433 11.601 10.14.136 1.836-.378 7.922-10.611 10.28-3.008.693-6.181 1.041-9.396 1.041-8.211 0-16.71-2.267-23.521-6.842-10.23-6.87-17.732-17.024-18.345-27.918C-13.346 10.517-8.818 3.207 0 0" style="fill:#dc0827;fill-opacity:1;fill-rule:nonzero;stroke:none" transform="translate(196.434 403.26)"/><path d="M0 0c.012-.051.021-.103.027-.153.198-1.436-1.364-3.312-4.556-3.312a9.11 9.11 0 0 0-.953.053c-3.961.427-5.484 1.341-6.459 2.863-.975 1.524.183 4.265 1.889 4.875 0 0 3.778-1.219 5.849-1.828S-.365 1.584 0 0m-99.468 17.15a11.338 11.338 0 0 0-.386-1.98c-1.248-4.454-2.633-10.061-3.537-13.153a13.828 13.828 0 0 0-.788-2.111c-.88-1.824-2.085-2.885-3.813-3.197a6.529 6.529 0 0 0-1.138-.097c-.25 0-.509.013-.777.037-2.797.256-1.825 5.436-1.28 7.981.549 2.558 1.535 6.38 2.681 9.505.671 1.827 1.662 4.014 3.553 5.307.955.653 2.025 1.076 2.967 1.126.063.003.125.005.187.005 1.46 0 2.558-.955 2.331-3.423M4.398 15.508h14.62s.374 3.815-.307 5.698c-.945 2.61-3.836 5.22-7.491 6.329-1.699.516-4.356.858-7.29.858-3.381 0-7.131-.455-10.217-1.62-5.738-2.167-10.785-6.305-11.439-11.46-.652-5.157 1.632-7.572 1.632-7.572s-4.177-2.479-5.025-4.633c-.848-2.153-1.436-4.568-3.264-5.678-.629-.382-1.242-.656-1.728-.656-.927 0-1.391.992-.621 4.115 1.175 4.764 6.201 23.364 6.201 23.364h5.09l2.088 7.832h-5.221l2.937 10.833h-6.004s-7.505-9.985-17.947-12.791l-1.566-5.809h6.064s-5.019-18.273-6.326-23.103c-1.305-4.829-3.002-4.829-4.307-4.829-1.304 0-1.174 2.153-.521 4.634.652 2.479 2.545 9.528 3.458 12.792.914 3.262 1.37 7.831-1.044 10.637-2.234 2.596-5.865 4.075-10.221 4.075-.351 0-.709-.009-1.07-.029-4.828-.261-7.49-1.561-7.49-1.561l.377 1.43h-14.554s-6.005-22.58-7.049-26.496c-1.003-3.761-2.487-5.294-4.106-5.294-.067 0-.133.003-.202.007-1.696.131-1.5 1.894-.782 4.503.718 2.611 7.31 27.28 7.31 27.28s-7.342.052-9.235.052c-3.086 0-4.471-1.617-4.471-1.617s-2.106 1.631-6.679 1.632l-.107-.001c-5.107-.028-11.111-1.237-15.142-5.302-3.675-3.706-6.015-8.182-7.571-15.023-1.723-7.572-2.896-10.653-5.808-11.588a1.738 1.738 0 0 0-.528-.096c-1.431 0-.833 2.725-.125 5.969.476 2.181 6.918 25.974 6.918 25.974h-9.593c-2.807 0-5.546-1.404-6.462-5.481-.718-3.198-4.184-16.07-5.613-21.537-1.892-7.244 1.05-12.448 10.508-12.858.27-.01.537-.016.798-.016 7.189 0 11.08 4.259 11.08 4.259s2.248-3.66 10.05-4.112c.53-.03 1.042-.044 1.534-.044 6.957 0 10.279 2.851 10.279 2.851s2.079-2.309 6.852-2.807c.868-.09 1.678-.127 2.424-.127 3.346 0 5.381.746 5.381.746l-.234-.75h14.684s5.482 20.95 6.331 24.475c.848 3.524 3.132 6.983 6.264 7.309.709.074 1.328.144 1.844.144 1.765 0 2.336-.825 1.224-5.169-1.435-5.613-2.611-9.789-3.85-14.358-1.24-4.569-.636-10.638 7.243-12.074a21.198 21.198 0 0 1 3.797-.349c6.826 0 10.822 3.482 10.822 3.482s2.351-3.191 8.812-3.393c.289-.009.574-.014.851-.014 6.898 0 10.112 2.688 10.112 2.688s2.546-2.153 8.55-2.479a82.176 82.176 0 0 1 4.468-.14c5.008 0 10.418.656 14.459 3.599 5.285 3.851 8.223 10.312 6.656 14.357-1.566 4.047-6.721 5.809-9.789 6.592-3.068.783-6.918 1.306-7.637 3.264-.716 1.958 1.241 3.393 2.676 3.785.504.137 1.256.242 2.012.242 1.4 0 2.814-.361 2.687-1.548a64.703 64.703 0 0 0-.457-3.393" style="fill:#dc0827;fill-opacity:1;fill-rule:nonzero;stroke:none" transform="translate(388.212 412.118)"/><path d="M0 0c-4.513-.148-10.986-.206-18.592-.206-26.548 0-66.893.699-85.802.699-3.328 0-5.991-.021-7.798-.072-47.346-1.334-82.275-8.176-82.275-8.176 23.152-4.508 34.056-19.739 34.056-19.739s31.419 11.17 67.566 14.013c12.341.97 28.086 1.279 46.425 1.401 18.338.122 38.504.913 45.449 1.644 6.946.732 12.249 3.118 17.729 8.712 5.367 5.481 5.422 11.759 5.422 11.759C19.195 6.44 9.642.314 0 0" style="fill:#dc0827;fill-opacity:1;fill-rule:nonzero;stroke:none" transform="translate(380.228 396.6)"/><path d="M0 0c.344 1.708 1.366 3.348 2.88 4.617C4.421 5.91 6.316 6.651 8.079 6.651c1.496 0 2.763-.53 3.57-1.492.838-.998 1.129-2.391.82-3.924-.343-1.708-1.366-3.348-2.879-4.617-1.542-1.294-3.437-2.035-5.199-2.035-1.495 0-2.764.53-3.571 1.492C-.017-2.927-.309-1.533 0 0m4.391-7.546c2.185 0 4.56.849 6.567 2.532 3.891 3.265 4.931 8.432 2.323 11.541-1.263 1.506-3.15 2.253-5.202 2.253-2.186 0-4.56-.847-6.568-2.531C-2.38 2.983-3.419-2.183-.812-5.293c1.264-1.506 3.15-2.253 5.203-2.253" style="fill:#042957;fill-opacity:1;fill-rule:nonzero;stroke:none" transform="translate(252.969 449.281)"/><path d="M0 0c.274 4.868 2.024 9.71 5.202 14.391 3.006 4.427 7.226 8.536 12.204 11.879 6.221 4.178 14.153 6.48 22.334 6.48 3.075 0 6.076-.332 8.918-.987 3.84-.885 6.502-2.385 7.911-4.458 1.105-1.625 1.086-3.159 1.055-3.59-.158-2.111-1.145-3.922-2.936-5.381-1.731-1.409-4.167-2.407-6.857-2.81-1.549-.232-3.086-.43-4.489-.596.191.18.359.338.494.463 1.835 1.694 3.651 5.932 2.134 9.166-.552 1.174-2.02 3.145-5.657 3.145-1.94 0-4.286-.535-7.169-1.637-5.759-2.2-10.242-6.041-14.992-12.842-4.599-6.584-5.917-16.475-3.002-22.517 2.309-4.787 6.606-7.213 12.771-7.213.959 0 1.985.058 3.051.173 3.212.346 5.753 2.216 7.348 5.407.83 1.659 2.017 5.374 1.139 6.852-.546.92-1.541 1.227-3.074 1.446a25.95 25.95 0 0 1-3.547.236c-.427 0-.849-.009-1.257-.03-1.55-.077-3.904-.409-6.273-.8.584.449 1.107.84 1.516 1.126 2.475 1.732 7.295 3.549 12.894 4.859 4.03.943 10.796 1.162 15.203 1.194A77.318 77.318 0 0 1 52.586.574C50.194-3.1 46.614-17.129 45.38-22.153c-2.2.249-3.478 1.644-3.608 1.792l-.959 1.232-1.498-.618c-1.916-.793-6.682-1.592-13.013-1.592-6.018 0-11.334.728-14.968 2.049-3.946 1.436-6.909 3.764-8.806 6.918C.572-9.116-.279-4.953 0 0m10.607-21.291c4.271-1.554 10.181-2.177 15.695-2.177 5.872 0 11.297.707 13.826 1.753 0 0 2.125-2.606 5.931-2.606.322 0 .656.018 1.002.059 0 0 4.668 19.618 7.31 23.674 2.64 4.056 4.904 6.65 4.904 6.65s-1.19.028-3.034.028c-4.348 0-12.34-.162-17.009-1.255-6.649-1.557-11.271-3.537-13.628-5.188-2.358-1.65-8.206-6.507-8.206-6.507s10.228 2.109 14.289 2.311c.385.019.771.028 1.151.028 2.433 0 4.623-.359 4.791-.642.194-.326-.607-8.378-6.885-9.054a26.642 26.642 0 0 0-2.823-.161c-5.091 0-8.804 1.762-10.853 6.009-2.594 5.376-1.321 14.431 2.829 20.372 4.157 5.952 8.206 9.856 14.006 12.073 2.66 1.017 4.785 1.497 6.41 1.497 1.919 0 3.143-.671 3.729-1.922 1.085-2.31-.424-5.564-1.65-6.696-1.226-1.132-4.952-4.763-4.952-4.763s5.244.41 10.706 1.226c5.989.896 11.176 4.433 11.601 10.14.136 1.836-.378 7.921-10.611 10.28-3.009.693-6.181 1.041-9.396 1.041-8.211 0-16.71-2.267-23.521-6.842C5.989 21.167-1.513 11.013-2.126.119c-.613-10.893 3.915-18.203 12.733-21.41" style="fill:#042957;fill-opacity:1;fill-rule:nonzero;stroke:none" transform="translate(185.827 424.55)"/><path d="M0 0c-.895 0-1.832-.115-2.571-.317-1.325-.362-3.046-1.336-3.9-2.991-.584-1.132-.659-2.371-.215-3.582.993-2.707 4.323-3.476 7.544-4.219.548-.127 1.067-.246 1.564-.373 4.559-1.164 7.439-2.997 8.331-5.297.542-1.403.284-3.441-.708-5.594-1.106-2.402-2.959-4.63-5.217-6.275-2.988-2.176-7.183-3.19-13.205-3.19-1.275 0-2.618.041-4.352.136-4.842.263-7.084 1.829-7.3 1.988l-1.305 1.254-1.417-1.246c-.192-.146-3.02-2.202-8.756-2.202-.258 0-.522.004-.785.012-5.009.158-6.963 2.295-7.172 2.542l-1.286 1.955-1.813-1.622c-.152-.125-3.659-2.962-9.429-2.962-1.117 0-2.266.106-3.414.315-2.448.446-4.162 1.421-5.093 2.897-1.368 2.169-.888 5.019-.479 6.524.299 1.101.594 2.179.89 3.261a646.551 646.551 0 0 1 2.969 11.128c.751 2.934.99 5.045-.138 6.498-1.03 1.328-2.626 1.328-3.149 1.328-.58 0-1.207-.067-1.871-.136l-.193-.02c-4.515-.471-7.194-5.104-8.114-8.929-.697-2.897-4.609-17.888-5.904-22.843h-10.133l.692 2.176-4.091-1.555c-.113-.038-1.867-.618-4.656-.618-.724 0-1.465.039-2.203.116-3.642.38-5.309 1.936-5.498 2.123l-1.326 1.652-1.629-1.463c-.224-.181-3.055-2.346-8.898-2.346-.462 0-.937.015-1.412.042-6.149.356-8.15 2.822-8.369 3.119l-1.366 2.565-2.006-2.258c-.206-.217-3.493-3.571-9.512-3.571-.232 0-.47.006-.706.016-3.888.168-6.548 1.187-7.907 3.026-1.227 1.663-1.44 4.074-.632 7.165a1719.12 1719.12 0 0 0 1.629 6.166c1.632 6.153 3.481 13.128 4.001 15.443.577 2.57 2.01 3.819 4.384 3.819h6.812c-1.707-6.32-5.828-21.608-6.217-23.391l-.005-.023c-.778-3.566-1.292-5.922-.045-7.472.55-.682 1.35-1.057 2.255-1.057.375 0 .771.066 1.179.197 4.269 1.371 5.58 5.881 7.232 13.144 1.435 6.302 3.53 10.488 7.008 13.995 1.605 1.619 3.719 2.841 6.282 3.63 2.2.677 4.676 1.028 7.36 1.043h.095c3.435 0 5.168-1.053 5.385-1.196l1.558-1.479 1.334 1.764c.157.145 1.048.896 2.873.896 1.116 0 4.176-.018 6.466-.032-1.724-6.451-6.027-22.544-6.594-24.605-.57-2.072-1.036-4.226.06-5.784.41-.582 1.194-1.298 2.612-1.406a4.51 4.51 0 0 1 .365-.015c1.976 0 4.648 1.194 6.164 6.875.87 3.266 5.244 19.71 6.628 24.916h10.149l-.893-3.343 4.213 2.125c.134.062 2.515 1.127 6.676 1.352.32.018.643.026.955.026 3.7 0 6.756-1.184 8.607-3.336 2.126-2.469 1.003-7.263.608-8.674a1191.685 1191.685 0 0 1-3.468-12.824c-.798-3.033-.733-4.93.209-6.154.573-.742 1.415-1.15 2.372-1.15 2.407 0 4.842.775 6.364 6.402 1.289 4.771 6.273 22.912 6.323 23.095l.74 2.693H-40.543l.533 1.976c8.702 2.799 15.172 9.895 17.225 12.366h2.197l-2.209-8.148-.728-2.686H-18.292l-.953-3.573h-5.085l-.426-1.574c-.205-.76-5.044-18.676-6.211-23.409-.687-2.787-.596-4.467.307-5.62.574-.731 1.419-1.135 2.381-1.135.849 0 1.75.307 2.834.966 2.152 1.306 2.994 3.609 3.736 5.641.137.375.268.73.403 1.076.34.863 2.451 2.582 4.131 3.583l2.29 1.36-1.83 1.935c-.015.017-1.569 1.861-1.066 5.84.242 1.917 1.336 3.844 3.164 5.572 1.786 1.691 4.178 3.131 6.914 4.164 2.531.956 5.892 1.483 9.465 1.483 2.597 0 5.092-.288 6.672-.766 3.312-1.007 5.488-3.306 6.106-5.017.218-.601.291-1.736.283-2.844H4.684c.042.33.082.678.121 1.038a3.198 3.198 0 0 1-.794 2.508C3.18-.469 1.829 0 0 0m2.23-7.07h14.62s.374 3.815-.307 5.698c-.945 2.61-3.836 5.22-7.491 6.329-1.698.516-4.356.857-7.29.857-3.381 0-7.131-.454-10.217-1.619C-14.193 2.028-19.24-2.11-19.894-7.266c-.652-5.156 1.632-7.571 1.632-7.571s-4.176-2.479-5.025-4.633c-.848-2.153-1.436-4.568-3.264-5.678-.629-.382-1.242-.656-1.728-.656-.927 0-1.391.991-.621 4.115 1.175 4.764 6.201 23.364 6.201 23.364h5.09l2.088 7.832h-5.221l2.937 10.833h-6.004s-7.505-9.986-17.947-12.791l-1.566-5.809h6.064s-5.019-18.273-6.326-23.103c-1.305-4.829-3.002-4.829-4.307-4.829-1.304 0-1.174 2.153-.521 4.633.652 2.48 2.545 9.529 3.458 12.792.914 3.263 1.37 7.831-1.044 10.638-2.234 2.596-5.865 4.075-10.221 4.075-.351 0-.709-.009-1.07-.029-4.828-.261-7.49-1.562-7.49-1.562l.377 1.431h-14.554s-6.005-22.58-7.049-26.496c-1.003-3.761-2.487-5.294-4.106-5.294-.067 0-.133.003-.202.007-1.696.131-1.5 1.893-.782 4.503.718 2.611 7.31 27.28 7.31 27.28s-7.342.052-9.235.052c-3.085 0-4.471-1.617-4.471-1.617s-2.106 1.631-6.679 1.632l-.107-.001c-5.107-.028-11.111-1.237-15.142-5.302-3.675-3.706-6.015-8.182-7.571-15.023-1.723-7.572-2.896-10.653-5.808-11.589a1.764 1.764 0 0 0-.528-.095c-1.431 0-.833 2.724-.125 5.969.476 2.181 6.918 25.974 6.918 25.974h-9.593c-2.807 0-5.546-1.404-6.462-5.481-.718-3.199-4.184-16.071-5.613-21.537-1.892-7.245 1.05-12.448 10.508-12.858.27-.011.537-.016.798-.016 7.189 0 11.08 4.259 11.08 4.259s2.248-3.66 10.05-4.112a27.17 27.17 0 0 1 1.535-.044c6.956 0 10.278 2.851 10.278 2.851s2.079-2.309 6.852-2.807c.868-.09 1.678-.127 2.424-.127 3.346 0 5.381.746 5.381.746l-.234-.75h14.684s5.482 20.95 6.331 24.475c.848 3.524 3.132 6.983 6.264 7.309.709.074 1.328.144 1.844.144 1.765 0 2.336-.825 1.224-5.169-1.435-5.613-2.611-9.789-3.85-14.358-1.24-4.569-.636-10.638 7.243-12.074a21.198 21.198 0 0 1 3.797-.349c6.826 0 10.822 3.482 10.822 3.482s2.351-3.191 8.812-3.393c.289-.009.574-.014.851-.014 6.898 0 10.112 2.688 10.112 2.688s2.546-2.153 8.55-2.479a82.176 82.176 0 0 1 4.468-.14c5.008 0 10.418.655 14.459 3.599 5.285 3.85 8.223 10.311 6.656 14.357-1.566 4.047-6.721 5.809-9.789 6.592-3.068.783-6.918 1.306-7.637 3.264-.716 1.958 1.241 3.393 2.676 3.785.504.137 1.256.242 2.012.242 1.4 0 2.814-.361 2.688-1.548C2.492-5.504 2.23-7.07 2.23-7.07" style="fill:#042957;fill-opacity:1;fill-rule:nonzero;stroke:none" transform="translate(390.38 434.696)"/><path d="M0 0a13.708 13.708 0 0 0-.789-2.11c-.879-1.825-2.085-2.886-3.813-3.198a6.511 6.511 0 0 0-1.137-.096c-.25 0-.509.012-.778.037-2.796.256-1.824 5.435-1.279 7.98.548 2.559 1.535 6.38 2.681 9.505.67 1.827 1.662 4.015 3.552 5.308.956.652 2.026 1.075 2.967 1.126.064.003.126.005.187.005 1.46 0 2.558-.955 2.331-3.423a11.164 11.164 0 0 0-.386-1.981C2.289 8.699.904 3.093 0 0m1.591 20.686-.034-.001c-1.383-.009-2.916-.54-4.321-1.501-2.4-1.641-3.585-4.246-4.35-6.332-1.18-3.219-2.201-7.168-2.764-9.792-.696-3.247-1.196-6.853.37-8.982.675-.919 1.643-1.461 2.798-1.565.331-.031.658-.046.971-.046a10.543 10.543 0 0 1 .597.021c.125.008.249.019.371.032.029.003.059.005.087.009.154.019.305.041.454.068l.004.001c.146.026.29.057.433.092l.042.011a6.676 6.676 0 0 1 3.4 2.027l.017.018c.057.064.115.128.171.195.043.051.086.102.128.155l.016.019c1.264 1.56 1.802 3.397 2.063 4.287.385 1.318.853 3.076 1.357 4.99l.374 1.425c.484 1.842.98 3.734 1.465 5.509.116.425.232.845.346 1.253.79 2.821.628 4.992-.48 6.453-.809 1.067-2.057 1.654-3.515 1.654" style="fill:#042957;fill-opacity:1;fill-rule:nonzero;stroke:none" transform="translate(284.821 414.135)"/><path d="M0 0c.012-.051.021-.103.027-.153.198-1.436-1.364-3.312-4.556-3.312a9.11 9.11 0 0 0-.953.053c-3.961.427-5.484 1.341-6.459 2.863-.975 1.524.183 4.265 1.889 4.875 0 0 3.778-1.219 5.849-1.828S-.365 1.584 0 0m-9.226 6.296-.159.052-.013.005-.689.221-.681-.243a4.746 4.746 0 0 1-1.312-.727c-.892-.689-1.608-1.703-2.016-2.897-.543-1.591-.412-3.195.362-4.402 1.101-1.722 2.642-2.756 5.16-3.363.84-.201 1.787-.355 2.863-.47.4-.044.798-.066 1.182-.066.449 0 .887.031 1.31.091C-1.386-5.244.164-4.436 1.146-3.2c.658.825 1.012 1.786 1.028 2.737a3.83 3.83 0 0 1-.1.942C1.639 2.369.26 3.255-1.209 3.809c-.574.216-1.162.382-1.713.538-.222.061-.449.126-.681.194l-.325.097c-1.79.534-4.546 1.418-5.283 1.654l-.015.004" style="fill:#042957;fill-opacity:1;fill-rule:nonzero;stroke:none" transform="translate(388.212 412.118)"/><path d="M0 0c-5.342-5.107-10.117-7.465-16.48-8.135-6.528-.686-26.264-1.507-45.242-1.633-15.489-.102-33.135-.35-46.577-1.408-18.823-1.479-36.327-5.238-47.696-8.131-9.408-2.393-16.158-4.559-18.972-5.503-1.299 1.544-3.867 4.324-7.77 7.359-3.853 2.998-9.61 6.678-17.205 9.393 3.692.578 8.379 1.263 13.889 1.969 13.309 1.703 34.285 3.879 58.634 4.565 1.712.048 4.244.071 7.738.071 8.642 0 21.945-.148 36.031-.304 16.575-.185 35.362-.394 49.772-.394 8.317 0 14.421.067 18.66.206C-8.497-1.726-.785.969 3.964 5.63 3.26 4.212 1.498 1.432 0 0m-15.287.184C-19.8.035-26.273-.022-33.879-.022c-26.548 0-66.893.699-85.802.699-3.328 0-5.991-.022-7.798-.073-47.346-1.333-82.275-8.175-82.275-8.175 23.151-4.508 34.056-19.74 34.056-19.74s31.419 11.17 67.566 14.013c12.341.971 28.086 1.279 46.425 1.402 18.338.122 38.504.913 45.449 1.644 6.945.731 12.249 3.117 17.729 8.712 5.367 5.48 5.422 11.759 5.422 11.759C3.908 6.624-5.646.498-15.287.184" style="fill:#042957;fill-opacity:1;fill-rule:nonzero;stroke:none" transform="translate(395.515 396.416)"/></g></svg>